<svg preserveAspectRatio="none" width="100%" height="100%" overflow="visible" style="display: block;" viewBox="0 0 83.4174 54.0008" fill="none" xmlns="http://www.w3.org/2000/svg">
<g id="Signature">
<path id="Vector 1" d="M10.0116 53.0007C10.0569 52.0885 10.4179 49.2302 12.7256 42.2276C14.6644 36.3444 18.5641 25.8678 20.9347 17.7782C23.3053 9.68848 24.1314 4.33803 25.2464 4.44319C26.3613 4.54836 27.7402 10.2713 30.5995 18.3871C33.4588 26.5029 37.7567 36.8382 40.1319 42.4704C42.507 48.1026 42.8291 48.7186 37.3934 45.0454C31.9577 41.3723 20.7544 33.3915 12.2933 27.9534C3.83219 22.5154 -1.54731 19.8619 2.22662 18.6962C6.00055 17.5305 19.0909 17.9328 34.6717 16.5174C50.2525 15.1019 67.927 11.8565 76.5174 10.5344C85.1077 9.2123 84.0783 9.91197 74.9769 14.2978C65.8754 18.6837 48.7331 26.7346 36.5717 33.0776C17.7494 43.8116 10.3484 48.7552 9.11307 49.6202C8.41593 50.0656 7.57615 50.5244 6.25272 51.274" stroke="var(--stroke-0, white)" stroke-width="2" stroke-linecap="round"/>
<path id="Vector 2" d="M33.4452 5.09798C33.4452 6.16738 34.1355 10.3735 35.6342 13.277C35.9547 13.8979 36.6433 14.2228 37.3663 14.4367C38.0893 14.6506 38.9641 14.6506 39.6629 14.3178C42.4499 12.9908 42.2592 8.77259 42.8666 6.72975C43.007 6.25767 44.598 16.661 46.4122 31.2382C47.1491 36.7403 47.5131 38.3942 47.7599 39.6405C48.0068 40.8867 48.1255 41.6753 48.2479 42.4877" stroke="var(--stroke-0, white)" stroke-width="2" stroke-linecap="round"/>
<path id="Vector 3" d="M55.3592 5.66244C55.2892 5.64023 54.5833 5.45622 53.2285 5.36262C51.8052 5.2643 50.6289 6.85965 49.7028 8.39401C48.7981 9.89312 48.7637 12.2954 48.9831 14.4071C49.0621 15.1686 49.9302 15.0853 50.5813 14.8085C53.3623 13.6262 54.1956 10.141 54.9815 7.8462C56.9732 9.38958 58.3905 10.9859 59.6975 11.6402C60.3936 11.8793 61.1565 11.9297 61.9425 11.9816" stroke="var(--stroke-0, white)" stroke-width="2" stroke-linecap="round"/>
<path id="Vector 4" d="M63.0634 1.44787C63.0634 3.6767 63.2411 8.51121 63.5518 9.04354C64.4283 10.5455 64.0367 5.17553 64.4867 3.85282C64.9451 2.50544 66.1175 1.56449 67.4569 1.09097C68.1005 0.86343 68.786 1.09926 69.3444 1.43181C71.8756 2.93916 72.1189 6.26765 72.8768 7.30564C73.3732 7.69435 74.0968 7.80285 74.7383 7.64986C75.3797 7.49688 75.917 7.07913 76.9185 6.25781" stroke="var(--stroke-0, white)" stroke-width="2" stroke-linecap="round"/>
</g>
</svg>
